<svg id="Layer_1" data-name="Layer 1" xmlns="http://www.w3.org/2000/svg" viewBox="0 0 115.36 107.37">
<defs>
<style>.cls-1{fill:#99A98F;}</style>
</defs>
<title>logo</title>
<path class="cls-1" d="M174.92,188.63a45.63,45.63,0,0,1-29.77-10.95,50.41,50.41,0,0,1-27.29-6.45,51.38,51.38,0,0,1-21.53-24.5,48.05,48.05,0,0,1-3.23-27.58,36.17,36.17,0,0,1,15.18-23.44c22.72-15.56,42.5-2.56,43.33-2a6.34,6.34,0,0,1-7.05,10.53c-.62-.4-13.71-8.63-29.12,1.93C103.38,114.43,103,130,108,141.79c4.21,9.93,13.65,20.16,28,22.68-3.89-10.67-5-26.7.13-40.18,3.87-10.15,17.17-24.29,34.66-23.9a29.61,29.61,0,0,1,21.93,10.29,33.94,33.94,0,0,1,7.84,26.26A38.44,38.44,0,0,1,189,160.66c-6,5.85-14.38,10.38-24.87,13.53,7,2.43,15.89,2.88,25.75-1.55a6.33,6.33,0,1,1,5.2,11.55A48.79,48.79,0,0,1,174.92,188.63Zm-4.79-75.57c-12.29,0-20.5,11.49-22.12,15.74-4.28,11.26-2.85,26,1,33.85a12.08,12.08,0,0,0,1.13,1.82c.73-.11,1.47-.25,2.22-.4,22.26-4.53,33.92-13.89,35.66-28.61A21.28,21.28,0,0,0,183.2,119a16.88,16.88,0,0,0-12.64-5.93Z" transform="translate(-92.32 -81.26)"/>
<circle class="cls-1" cx="89.02" cy="6.83" r="6.83"/>
<circle class="cls-1" cx="108.52" cy="16.72" r="6.83"/>
</svg>