<svg id="Layer_1" data-name="Layer 1" xmlns="http://www.w3.org/2000/svg" viewBox="0 0 298.96 146.73"><defs><style>.cls-1{fill:#CADACF;}</style></defs><title>masjit</title><path class="cls-1" d="M.52,273.22c0-.8.08-1.61.15-2.41,0-.2.1-.49.25-.56,1.28-.67,2.56-1.36,3.89-1.93A5.79,5.79,0,0,1,6.68,268c.76-.07.94-.28.94-1.06a4.63,4.63,0,0,1,.21-1.83c.85-1.87.72-3.86.79-5.81,0-1.13.21-2.25.23-3.37.09-4.15.1-8.3.15-12.45,0-1.35.05-2.7.05-4.05a1.56,1.56,0,0,0-.15-.71c-.4-.87-.84-1.72-1.24-2.59a.9.9,0,0,1,0-.54c.11-.47.28-.93.4-1.4,0-.06-.13-.15-.29-.32a3.61,3.61,0,0,1,.45.07c.52.11.84-.07.85-.61,0-1.71,0-3.43,0-5.15a7.5,7.5,0,0,0-1.41-3.77c-.07-.13-.14-.39-.08-.46.46-.45.3-1,.32-1.57,0-.19.65-.39,0-.63a1.9,1.9,0,0,1,.39.11c.74.34,1.06.13,1.05-.73,0-1.31-.05-2.62-.06-3.92,0-.29.08-.58.09-.86s0-.54-.11-.64c-.72-.58-.72-1.51-1.18-2.21-.13-.19-.2-.41-.33-.59a.78.78,0,0,1-.08-.94,4.71,4.71,0,0,0,.26-1.43c1,.12,1.33-.18,1.33-1.23,0-1.69,0-3.37,0-5.05,0-.69,0-1.37-.06-2.06,0-.2,0-.49-.17-.56-.78-.46-.4-.93-.08-1.44a2.29,2.29,0,0,0,.39-.91c.44-3.94.84-7.88,1.28-11.82.16-1.44.44-2.86.6-4.3a20.93,20.93,0,0,0,0-2.26c.14.11.33.2.33.26-.25,2.48.34,4.9.55,7.34.16,1.94.43,3.87.66,5.8s.44,3.7.7,5.54a1.75,1.75,0,0,0,.45.9c.44.51.39.78,0,1.31a2.63,2.63,0,0,0-.45,1.42c0,2.16,0,4.32.06,6.48,0,.5.06,1,.88.68.32.94.62,1.81.9,2.69a.49.49,0,0,1-.06.39c-.41.52-.84,1-1.26,1.52a.49.49,0,0,0-.13.2c-.09.47-.08.47-.49.46a47.22,47.22,0,0,1,.2,6.18c0,.13.09.35.19.38s.32,0,.45-.08a8.18,8.18,0,0,1,.69.64,1,1,0,0,1,.13.46,9.73,9.73,0,0,1,.24,1.31,1.22,1.22,0,0,1-.25.59c-.1.17-.29.3-.38.47-.18.36-.23.82-.49,1.09a1.49,1.49,0,0,0-.42,1.23c.06,1.79.06,3.57.09,5.35,0,.22,0,.44.05.75l.28-.17c.27.18.49.32.71.49a.42.42,0,0,1,.17.23c.11.57.21,1.14.29,1.71a.38.38,0,0,1-.1.27,5.66,5.66,0,0,0-1.39,2.48,1.9,1.9,0,0,0-.09.76q0,9.72.08,19.43c0,.67.05,1.33,0,2,0,.44.13.62.61.58-.08.74-.17,1.44-.24,2.14a2.59,2.59,0,0,0,0,.62c.07.48.26.75.85.73,2.67-.06,5.34-.08,8-.11a9.26,9.26,0,0,0,1.29,0,.86.86,0,0,0,.62-.34c.1-.19,0-.48-.09-.73,0-.41.11-.81.13-1.22s0-1.08,0-1.61c0-.9,0-.9-.65-1.57l1.28-.06a.8.8,0,0,0,.81-.59,2.29,2.29,0,0,1,1-1.06c1-.58,1.1-.6,1-1.83a12,12,0,0,0,1.59-.12.86.86,0,0,0,.61-.45,2.11,2.11,0,0,1,1.44-1.51,1.12,1.12,0,0,0,.88-1.28,1.08,1.08,0,0,1,.15-.61l.11,1.49h.19l.22-.47a.39.39,0,0,1,0,.15c0,.47.21.68.57.95A5.22,5.22,0,0,1,35.42,256a1,1,0,0,0,.71.6c.66.15,1.32.34,2,.47a.66.66,0,0,0,.83-.28c.18-.26.73-.27,1.28-.45,0-.87,0-1.85,0-2.83s0-1.94-.07-2.9c0-.66-.28-1.3-.39-1.95,0-.17.09-.48.2-.51,1-.29,1.17-1.11,1.47-2a4,4,0,0,1,3-2.65c1.26-.32,1.57-.78,1.49-2.11A17.94,17.94,0,0,1,46,239.4h.19c0,.93,0,1.86,0,2.79a1.81,1.81,0,0,0,1.13,1.38,5.43,5.43,0,0,1,3.16,2.57,1.13,1.13,0,0,0,1.54.63,6.4,6.4,0,0,0-.78-4.56l.63-1.16-.71-.77a3,3,0,0,1,.47,0c.7.27.69.27.7-.51,0-1.22.07-2.45.1-3.67a.53.53,0,0,0-.08-.27c-.35-.62-.72-1.23-1.07-1.85a.85.85,0,0,1-.09-.47c.06-.47.15-.95.22-1.4h.92v-3.35c0-.83.06-1.66.08-2.49,0-.32-.37-.65-.59-1,1.06-.85.87-2.15,1-3.32.32-3.68.55-7.36.82-11.19.21,1.69.4,3.24.57,4.79.34,2.92.66,5.85,1,8.78,0,.1,0,.25.05.3.68.53.1,1.08.08,1.64-.06,1.77,0,3.55,0,5.33a.68.68,0,0,0,.21.43c.15.16.48.24.52.4a4.34,4.34,0,0,1,.21,1.69,6.15,6.15,0,0,1-.79,1.58.77.77,0,0,0-.14.34c0,1,0,2.06,0,3.09l.18.12a6,6,0,0,0,.85-.73,20.6,20.6,0,0,1,8.12-6.19,18.38,18.38,0,0,1,5.2-1.4,1.31,1.31,0,0,0,1.34-1c.08-.34.56-.65.92-.85a2,2,0,0,0,1-1.41,7.68,7.68,0,0,0,0-1.6l.54.13c0,1.06,0,1.06.16,1.12a1.68,1.68,0,0,0,.64,1.63,3.69,3.69,0,0,1,1.61,1.83c0,.16.43.27.68.32a20.27,20.27,0,0,1,6,2.06A23.71,23.71,0,0,1,91,240.84a5.77,5.77,0,0,0,2.07,1.76,1.28,1.28,0,0,1,.69,1.63c-.61,1.57-.19,3.1.11,4.63a.78.78,0,0,0,.64.39,5.46,5.46,0,0,0,2.93-1.56.84.84,0,0,0,.11-.51,18,18,0,0,1,.11-2.2c.06.74.15,1.48.16,2.22a1.49,1.49,0,0,0,.77,1.26c.79.5,1.65.89,2.59,1.38a12.66,12.66,0,0,0,.21-1.57c.06-4.65.1-9.3.15-14a1,1,0,0,0-.11-.48c-.46-.9-1-1.79-1.38-2.7-.1-.2,0-.5,0-.75s.17-.28.15-.4a2.34,2.34,0,0,1,.67-2.16l.45.12c.05-.85.12-1.66.13-2.46,0-1.45,0-2.91,0-4.36a5.33,5.33,0,0,0-.54-1.57c-.13-.34-.3-.67-.45-1,0-.08,0-.21,0-.24-.7-.45-.28-1-.21-1.58.11-.75.26-1.49.4-2.26.65.35,1.06.17,1.08-.47.06-2,.08-4.07.11-6.1a.57.57,0,0,0-.08-.29L100,204.81a.53.53,0,0,1,0-.35c.23-1.1.48-2.19.74-3.31a.6.6,0,0,0,1-.31,3.06,3.06,0,0,0,.08-.8c0-2.18.06-4.36,0-6.54a2.71,2.71,0,0,0-.67-2.22c-.46-.41,0-.87.25-1.27a2.39,2.39,0,0,0,.44-.81c.33-2.8.61-5.61.93-8.41.39-3.46.8-6.91,1.21-10.37,0-.14,0-.28,0-.41l.16,0c.18,1.34.38,2.68.53,4,.47,4.23.91,8.46,1.36,12.69.08.78.13,1.57.24,2.35a1.16,1.16,0,0,0,.37.65c.61.58.74,1,.16,1.59a2.34,2.34,0,0,0-.49,1.77c-.06,2.41,0,4.82,0,7.23,0,.83.48,1.24,1.45,1.17a7.61,7.61,0,0,0,.06,1c.05.29.17.56.25.85a1,1,0,0,1,.09.52c-.34.92-.72,1.83-1.08,2.75a.33.33,0,0,1-.11.15c-.79.46-.7,1.21-.69,2,0,1.69,0,3.37,0,5.05,0,.85.56,1.26,1.46,1,0,.26,0,.52.07.77a2.16,2.16,0,0,0,.24,1.14c.19.29-.08.93-.26,1.37-.33.84-.75,1.64-1.13,2.46a.77.77,0,0,0-.06.3c0,2.24.05,4.48.1,6.72,0,.65.35.84,1.08.57,0,.34,0,.65.09,1s-.17.75.29,1c.08,0,.09.36,0,.51-.49,1.1-1,2.2-1.51,3.3a1.27,1.27,0,0,0-.07.48c0,5.23,0,10.46.06,15.7,0,1.64.06,3.28.08,4.92,0,.55.2.82.8.85a2.25,2.25,0,0,1,1.16.38,1,1,0,0,0,1.08.06,6.8,6.8,0,0,0,1-.57,1,1,0,0,0,.49-1,1.54,1.54,0,0,1,.15-.76,2,2,0,0,0,1.36,2.37,1.52,1.52,0,0,1,.5.45c.62.7,1.22,1.4,1.84,2.12-.9,1-.3,2.26-.49,3.51a12.59,12.59,0,0,0,2,.17,2,2,0,0,0,1-.55,11.22,11.22,0,0,1,1.24-1.16c.57-.34.59-.82.72-1.34l.05.81.15.08a2.91,2.91,0,0,0,.4-1c0-2.89.09-5.77,0-8.66a8,8,0,0,0-.91-2.19,1.2,1.2,0,0,1,0-.7,9.1,9.1,0,0,1,.46-1.33c.08-.17.29-.27.54-.49,0-1.43.09-3,0-4.54a7,7,0,0,0-.87-2.08c0-.07-.17-.13-.16-.18a4.94,4.94,0,0,1,.23-1.4,3.67,3.67,0,0,1,.81-.92l.25.12c0-1.58,0-3.15,0-4.72a.73.73,0,0,0-.12-.35c-.29-.48-.61-1-.9-1.45s-.47-.8-.08-1.26,0-.86.42-1.13a3.8,3.8,0,0,0,.49-.41l.26.08-.18-6.5a.55.55,0,0,0-.09-.3c-.41-.66-.41-.67.21-.94.48-4.61,1-9.18,1.44-13.76l.18,0c.05.24.12.47.15.71.46,4.15.91,8.29,1.4,12.44,0,.29.35.55.57.88a3,3,0,0,0-.58,2.35c0,1.48,0,2.95,0,4.43,0,.75.27,1,1,1a7.35,7.35,0,0,1,.35,1.4,1.69,1.69,0,0,1-.34.8c-.3.54-.63,1.06-.93,1.59a.78.78,0,0,0-.1.35c0,1.42,0,2.83,0,4.24,0,.72.29.91,1,.84l.39,1.33a.39.39,0,0,1,0,.24c-.26.58-.58,1.13-.8,1.73a4.62,4.62,0,0,0-.33,1.46c0,1.29,0,2.57,0,3.86,0,.49.16.83.69.6a5.43,5.43,0,0,1,.39,1.38c0,.31-.32.62-.45.94a6.63,6.63,0,0,0-.71,2.62c.07,4.22,0,8.43,0,12.64,0,.79.07,1.58.11,2.37,0,.38,0,.87.54.87.22,0,.45-.28.56-.36l.62.62s.1,0,.11.05c.29,1.08.81.25,1.22.13a14.42,14.42,0,0,0,1.38-.52c.41-.16,1,0,1.2-.59,0-.08.29-.06.5-.08,0-.55,0-1.1.07-1.65h.15a7.82,7.82,0,0,0,0,1.28.92.92,0,0,0,.42.63,2,2,0,0,0,1.06.07c.11,0,.13-.46.2-.73a.46.46,0,0,1,.05.1c.09,1.16.33,1.3,1.45.91a4.07,4.07,0,0,1,.61-.08c.8-.12.94-.28.94-1.08a1.16,1.16,0,0,1,.08-.51,1.9,1.9,0,0,1,.08.61c-.13.65.22.87.76.95a5.87,5.87,0,0,1,3.18,1.58c.56.53.63.5,1.2-.07a5.66,5.66,0,0,1,2.86-1.54l.12,0c1.43-.34,1.43-.34,1.46-1.82a.75.75,0,0,1,.07-.38c0,.44.1.87.12,1.31s.43.67.85.73a7.16,7.16,0,0,1,5.23,3.51,3.18,3.18,0,0,0,.45.71,1.58,1.58,0,0,0,2.25-.43,7.17,7.17,0,0,1,5.51-3.95c.68-.08.84-.47.8-1.07,0-.39,0-.78,0-1.18h.16v1.55c0,.42.29.53.63.63a21.94,21.94,0,0,1,2.88.92,7.34,7.34,0,0,1,3,3,4.35,4.35,0,0,0,1.3,1.05c.08,0,.36-.18.52-.31a4.06,4.06,0,0,0,.91-.89,7.66,7.66,0,0,1,5.73-4c.56-.09.75-.33.72-.85s0-.87,0-1.3h.18c0,.44,0,.89,0,1.34s.1.67.55.74.89.19,1.34.3a7.21,7.21,0,0,1,4.79,3.66c.34.6.83.67,1.41.81.92.23,1.2-.36,1.56-1a7.93,7.93,0,0,1,5.6-3.82c1-.17,1.05-.26,1-1.24a4.75,4.75,0,0,1,.1-1,4.52,4.52,0,0,1,.12,1.14c-.1.64.21.86.74,1a20.84,20.84,0,0,1,2.5.65,7,7,0,0,1,3.78,3.35c.25.47,1.43,1.14,1.88,1a2.16,2.16,0,0,0,.82-.69c.7-.82,1.3-1.73,2.06-2.47a6.56,6.56,0,0,1,1.94-1.24,15,15,0,0,1,2.31-.7c.94-.24,1-.25.94-1.19a2.38,2.38,0,0,1,.13-.94,4.16,4.16,0,0,1,0,1.05c-.1.54.19.78.59.95a3,3,0,0,0,.84.18,7.84,7.84,0,0,1,5.72,3.56,1.07,1.07,0,0,0,1.16.51c.55-.07,1.11-.08,1.67-.16a1,1,0,0,0,.54-.31c.56-.6,1.09-1.24,1.67-1.83.15-.16.43-.17.65-.25a.38.38,0,0,0,.19-.13,2.25,2.25,0,0,1,1.64-1.1c.79-.23,1.62-.36,2.4-.61a1,1,0,0,0,.59-.62c.09-.41,0-.86.1-1.31,0,.3.12.59.14.89,0,.8.16,1,1,1.07a9.25,9.25,0,0,1,5,2,8,8,0,0,1,1.56,1.67,1.36,1.36,0,0,0,1.55.56,3.63,3.63,0,0,0,1.34-.35,5.88,5.88,0,0,0,1.3-1.24c.12-.14,0-.48,0-.74l.75-.05v-1.07l0-16.32c0-.94,0-1.87.1-2.8a2.38,2.38,0,0,0-.43-1.5c-.39-.63-.76-1.26-1.12-1.9a.45.45,0,0,1,.06-.43c.45-.28.26-.68.26-1.06,0-.15,0-.3,0-.45a2.11,2.11,0,0,1,.36.09.9.9,0,0,0,1.05-.7c0-1.53-.05-3.07,0-4.6,0-.59.07-1.08-.56-1.46-.3-.18-.4-.69-.6-1.06a5.7,5.7,0,0,0-.32-.59c-.23-.34-.59-.63.05-1,.13-.07,0-.67-.07-1,0-.11-.15-.2-.24-.3l.08-.15c.23.06.45.13.68.21a.88.88,0,0,0,1-.71c0-1.66,0-3.32,0-5,0-.85-.07-1.7-.14-2.54a.67.67,0,0,0-.31-.38c-.42-.25-.45-.55,0-.75a.87.87,0,0,0,.54-.84c.48-3.87,1-7.73,1.5-11.6.13-1,.22-1.94.33-2.91,0-.34.11-.69.16-1l.19-.06a1.37,1.37,0,0,1,.26.47q.83,6.39,1.63,12.78a8.09,8.09,0,0,0,.12.86c.16.67-.11,1.54,1,1.84-1.16.58-.83,1.6-.87,2.37-.12,2,0,4,0,6a.88.88,0,0,0,.28.61c.14.09.42,0,.78-.07.07.24.17.6.26,1,0,0,0,.09,0,.12.64,1.51-.46,2.42-1.18,3.45a1,1,0,0,0-.2.57c0,1.73,0,3.45.05,5.17,0,.46.17.76.67.6s.68.1.67.52-.05.82.33,1.13c.07.06.06.32,0,.43-.42.77-.89,1.52-1.29,2.3a1.67,1.67,0,0,0-.12.77c0,.63,0,1.25,0,1.87q0,8,0,16a5.82,5.82,0,0,0,.22,1.11l1-.76a1.11,1.11,0,0,0,1.11.75c.69,0,.63-.61.62-1,.15.28.25.73.53.91s.79.15,1.18.27c1,.31,2,.65,3,1,.3.1.64.38.69,0,.27.35.6.82,1,1.24a.56.56,0,0,0,.52,0,7.27,7.27,0,0,1,3.18-1.15,2.58,2.58,0,0,0,.81-.27.74.74,0,0,0,.24-.5,8.49,8.49,0,0,0,0-1h.17a7.36,7.36,0,0,1,.06.81.94.94,0,0,0,1.36.89c1.26-.46,2.54-.9,3.83-1.24,1.12-.3,1.13-.23,1.16-1.42,0-.05,0-.1.16-.16a2,2,0,0,1,0,.42c-.07.76,0,.91.8,1a13,13,0,0,1,4.84,1.29,8.78,8.78,0,0,1,3.3,3.13,1.47,1.47,0,0,0,1.28.81,10.07,10.07,0,0,1,1.17.19l-.28.5s.08.07.13.08l.37.05c1.23.11,1.36,0,1.65-1.14.73-2.92,1.47-5.83,2.17-8.75a11.29,11.29,0,0,0,.34-2.44,6.91,6.91,0,0,0-.41-1.7c-.16-.58.1-.78.65-.75a2.15,2.15,0,0,0,.39,0V256q0-14.15-.05-28.28c0-1,.15-2,.15-3a2.15,2.15,0,0,0-.38-.94c-.21-.38-.47-.73-.71-1.1s-.4-1.13-1-1.43c-.4-.18-.27-1.52.07-1.82a1,1,0,0,0,.31-.7A2,2,0,0,1,281,217l.27.45a7.24,7.24,0,0,0,1.36-.53c.15-.1.13-.53.14-.81,0-2.34.05-4.69.08-7,0-.29.11-.58.09-.86s-.13-.56-.28-.61c-1.09-.38-1.42-1.32-1.79-2.24,0-.11-.08-.29-.14-.31-.94-.16-.57-.87-.6-1.41a3.57,3.57,0,0,1,0-.54c.94-.16.38-.88.47-1.37s.1-.84.15-1.3c.66.42.91.38,1.81-.14.08-.44.13-.74.19-1.05a4.14,4.14,0,0,0,.09-.6c0-2.34-.06-4.69,0-7a19.53,19.53,0,0,0-.27-3.25c0-.13-.2-.26-.33-.36s-.66-.37-.64-.48a1.91,1.91,0,0,1,.54-1.11,1.42,1.42,0,0,0,.73-1.16q.94-6.72,1.94-13.42c.54-3.57,1.13-7.13,1.68-10.7a10.11,10.11,0,0,0,0-1.35c0-.33,0-.66,0-1,.05-.77.1-1.55.15-2.2l-.5-.84c.3,0,.55,0,.66-.07a2.74,2.74,0,0,0,.28-2.28l.11-.14c.1.1.27.18.3.3a2.93,2.93,0,0,1-.4,2.39,1.82,1.82,0,0,0,0,1.77.91.91,0,0,0,0,1.33l-.31.27.29.16a1.09,1.09,0,0,1-.08.15c-.28.37-.46.73.05,1.08a.65.65,0,0,1,.18.43c.8,5.92,1.58,11.84,2.38,17.76.21,1.56.5,3.11.74,4.67a.8.8,0,0,0,.66.76c.83.22.82.4.33,1.12s-1.08,1.32-.72,2.26c-.66,1.41-.07,2.88-.17,4.32s0,2.9,0,4.35v2.32c1,.32,1.4.19,1.63-.55h.67v2.45c.73.32.72.31.4,1.09-.45,1.09-.88,2.19-1.38,3.25a2.13,2.13,0,0,1-.78.77,1.76,1.76,0,0,0-.66,1.41,4.6,4.6,0,0,1,.05.74c0,2,0,4.07,0,6.11,0,.58.05,1.16.08,1.86.63-.07,1.21-.09,1.78-.2s.55.12.55.51c0,.58-.34,1.23.36,1.67a.45.45,0,0,1,0,.41c-.38.47-.1,1.18-.71,1.63-.38.28-.45.95-.69,1.43s-.64,1.17-.94,1.76a1.06,1.06,0,0,0-.14.51c0,.44.15.88.16,1.33q0,15.23,0,30.45c0,.7.44.74.89.88a2.93,2.93,0,0,0,.41.07,12.54,12.54,0,0,0-.54,2.34,9.82,9.82,0,0,0,.36,2.51c.72,3,1.48,6,2.23,9.06.23.9.35.92,1.3.91a23.33,23.33,0,0,1,2.48.19c-.84,1-1.74,1.77-1.16,3.15.53.3.53.33,0,.75a.45.45,0,0,0-.18.24c-.13,1-.3,2-.36,3s0,2,0,3.21c.76,0,1.41,0,2,0a7,7,0,0,1,1,.18V300H.52Z" transform="translate(-0.52 -153.27)"/></svg>