<svg width="385" height="516" viewBox="0 0 385 516" fill="none" xmlns="http://www.w3.org/2000/svg">
  <circle cx="188" cy="316" r="154.5" stroke="black" />
  <circle cx="188" cy="161" r="29" fill="white" />
  <circle cx="327.993" cy="239.993" r="29" transform="rotate(57.7979 327.993 239.993)" fill="white" />
  <circle cx="299.168" cy="439.846" r="29" transform="rotate(138.22 299.168 439.846)" fill="white" />
  <circle cx="95.1715" cy="451.42" r="29" transform="rotate(-142.725 95.1715 451.42)" fill="white" />
  <circle cx="45.5742" cy="250.271" r="29" transform="rotate(-68.8614 45.5742 250.271)" fill="white" />
  <circle cx="241" cy="175" r="29" fill="white" />
  <circle cx="344.391" cy="292.301" r="29" transform="rotate(57.7979 344.391 292.301)" fill="white" />
  <circle cx="250.317" cy="464.719" r="29" transform="rotate(138.22 250.317 464.719)" fill="white" />
  <circle cx="61.4761" cy="408.181" r="29" transform="rotate(-142.725 61.4761 408.181)" fill="white" />
  <circle cx="77.7453" cy="205.886" r="29" transform="rotate(-68.8614 77.7453 205.886)" fill="white" />
  <circle cx="288" cy="204" r="29" fill="white" />
  <circle cx="328.005" cy="394.421" r="29" transform="rotate(80.422 328.005 394.421)" fill="white" />
  <circle cx="145.245" cy="471.108" r="29" transform="rotate(159.477 145.245 471.108)" fill="white" />
  <circle cx="40.5784" cy="303.844" r="29" transform="rotate(-126.659 40.5784 303.844)" fill="white" />
  <circle cx="344.899" cy="347.526" r="29" transform="rotate(57.7979 344.899 347.526)" fill="white" />
  <circle cx="195.947" cy="474.408" r="29" transform="rotate(138.22 195.947 474.408)" fill="white" />
  <circle cx="41.64" cy="356.64" r="29" transform="rotate(-142.725 41.64 356.64)" fill="white" />
  <circle cx="121.743" cy="172.507" r="29" transform="rotate(-68.8614 121.743 172.507)" fill="white" />
  <path d="M150.726 67.0252C146.706 77.0246 133.369 78.9222 126.719 70.441L111.533 51.0723C104.884 42.5911 109.909 30.0919 120.579 28.5738L144.945 25.1068C155.615 23.5887 163.927 34.1902 159.907 44.1896L150.726 67.0252Z" fill="white" />
  <path d="M164.372 161.977C164.498 167.195 160.729 171.696 155.57 172.49V172.49C150.517 173.267 145.651 170.251 144.098 165.381L124.068 102.55C122.016 96.1124 126.198 89.3636 132.876 88.3366L150.121 85.6847C156.679 84.6763 162.63 89.6592 162.79 96.292L164.372 161.977Z" fill="white" />
</svg>